<?xml version="1.0" encoding="utf-8"?>
<!-- Generator: Adobe Illustrator 27.0.0, SVG Export Plug-In . SVG Version: 6.00 Build 0)  -->
<svg version="1.1"
	 id="svg1" xmlns:sodipodi="http://sodipodi.sourceforge.net/DTD/sodipodi-0.dtd" xmlns:svg="http://www.w3.org/2000/svg" xmlns:inkscape="http://www.inkscape.org/namespaces/inkscape"
	 xmlns="http://www.w3.org/2000/svg" xmlns:xlink="http://www.w3.org/1999/xlink" x="0px" y="0px" viewBox="0 0 595.3 841.9"
	 style="enable-background:new 0 0 595.3 841.9;" xml:space="preserve">
<style type="text/css">
	.st0{fill:#121212;}
	.st1{fill:#F6C812;}
</style>
<sodipodi:namedview  bordercolor="#eeeeee" borderopacity="1" id="namedview1" inkscape:deskcolor="#505050" inkscape:document-units="mm" inkscape:pagecheckerboard="0" inkscape:pageopacity="0" inkscape:showpageshadow="0" pagecolor="#505050">
	</sodipodi:namedview>
<g id="layer1" inkscape:groupmode="layer" inkscape:label="طبقة 1">
	<path id="path1" class="st0" d="M333.3,501.4c0,0-6.3-0.1-14.1-0.1c-16.2-0.1-24.4-0.1-26.2-0.2c-1.4-0.1-8.2-0.2-12.3-0.3
		c-1.5,0-3-0.1-3.4-0.1c-0.4,0-3.2-0.1-6.2-0.1c-3,0-6.3-0.1-7.2-0.1s-3.7-0.1-6.1-0.1c-3.7,0-8.7-0.2-11.3-0.3
		c-0.9,0-1.9-0.1-2.8-0.2c-0.4-0.1-0.9-0.1-1.1-0.1c-0.5,0-0.5-0.2,0.1-0.3c1.2-0.2,53.7,0.1,57.3,0.3c1.3,0.1,4,0.1,9.7,0.2
		c2.8,0.1,5.5,0.1,6.2,0.1c0.6,0,2.9,0.1,5.1,0.1c2.2,0,5.5,0.1,7.4,0.1c1.9,0.1,6.1,0.2,9.3,0.2s6.4,0.2,7.1,0.2
		c1.1,0.1,1.2,0.1,1,0.2c-0.2,0.1-0.6,0.1-1.3,0.1c-0.6,0-1.4,0-1.9,0.1C341.9,501.4,333.4,501.5,333.3,501.4L333.3,501.4z
		 M325.8,498.2c-0.8-0.2-1.9-0.6-3.3-1.4l-1-0.6l-0.8,0.1c-2.8,0.4-4.9-1.3-4.9-4.1c0-0.9,0.2-1.6,0.7-2.4c0.4-0.7,0.9-1,1.6-1.4
		c0.5-0.2,0.6-0.3,1.8-0.3c1.2,0,1.3,0,1.9,0.3c0.7,0.4,1.5,1.1,1.8,1.7c0.1,0.2,0.3,0.8,0.4,1.2c0.1,0.6,0.1,0.8,0,1.4
		c-0.1,0.7-0.5,1.6-0.9,2.1c-0.1,0.2-0.2,0.3-0.2,0.4c0.1,0.2,2,1.1,2.9,1.4c1.6,0.5,2.3,0.6,3.6,0.2c0.6-0.2,0.7-0.2,0.8,0
		c0.5,0.7-0.6,1.3-2.6,1.4C326.8,498.4,326.2,498.3,325.8,498.2L325.8,498.2z M321,495c0.5-0.2,1.1-0.9,1.3-1.5
		c0.2-0.7,0.2-1.9,0-2.6c-0.3-0.7-0.6-1-1.1-1.4c-0.4-0.2-0.6-0.3-1.3-0.3c-0.9,0-1.2,0.1-1.8,0.7c-0.4,0.4-0.7,1.1-0.7,2.1
		c0,0.9,0.1,1.4,0.5,2C318.6,495.1,319.7,495.5,321,495L321,495z M353.5,496.9c-0.5-0.1-0.8-0.8-0.4-0.9c0.1,0,0.2-0.2,0.3-0.3
		c0.1-0.1,0.1-1.5,0.2-3l0.1-2.7l-0.4-0.3c-0.2-0.2-0.4-0.4-0.3-0.5c0-0.2-0.2-0.2,4.3-0.1c0.1,0,0.2,0.1,0.3,0.3
		c0.2,0.4,0.1,1.2-0.2,1.4c-0.2,0.1-0.3,0.1-0.5-0.2c-0.2-0.3-0.4-0.3-0.8-0.4c-0.7-0.1-0.8,0-0.7,1.1l0,0.9l0.5,0
		c0.3,0,0.6,0,0.8-0.1c0.2-0.1,0.3-0.1,0.5,0.1c0.2,0.2,0.3,0.3,0.2,0.8c0,0.3,0,0.6-0.1,0.7c-0.1,0.3-0.5,0.2-0.8-0.1
		c-0.2-0.2-0.4-0.3-0.7-0.3c-0.2,0-0.5,0.1-0.5,0.1c-0.1,0.1-0.1,0.5-0.1,1.2l0,1.1l0.3,0.1c0.2,0,0.5,0.1,0.8,0
		c0.4-0.1,0.4-0.1,0.6-0.4c0.2-0.5,0.5-0.6,0.8,0c0.2,0.4,0.1,1.2-0.2,1.5c-0.2,0.2-0.3,0.2-2,0.2
		C354.5,497,353.6,496.9,353.5,496.9L353.5,496.9z M337.6,496.6c-1.1-0.3-1.5-0.5-2-1.2c-0.5-0.7-0.6-1.2-0.6-3.6v-2.2l-0.4-0.4
		c-0.4-0.4-0.4-0.6-0.2-0.7c0.1,0,0.6,0,1.3,0c1.1,0,1.2,0.1,1.3,0.3c0.2,0.3,0.1,0.5-0.2,0.6c-0.1,0-0.2,0.1-0.2,0.2
		c0,0.1-0.1,1.2-0.1,2.4c0,2.1,0,2.3,0.2,2.7c0.3,0.6,0.7,0.8,1.5,0.8c0.8,0,1.3-0.4,1.6-1.2c0.2-0.5,0.2-0.8,0.3-2.6l0.1-2
		l-0.4-0.4c-0.2-0.2-0.4-0.5-0.4-0.5c0-0.1,0.4-0.1,1.2-0.1c1.2,0,1.2,0,1.3,0.2c0.2,0.3,0.1,0.5-0.2,0.7c-0.2,0.2-0.2,0.2-0.2,1.8
		c0,3.3-0.4,4.4-1.9,5.1C339.2,496.6,338.1,496.8,337.6,496.6L337.6,496.6z M302.6,496c-0.1-0.1-0.1-0.3-0.2-0.4
		c-0.1-0.2,0-0.3,0.2-0.5c0.3-0.2,0.3-0.3,0.3-1.1c0-0.5,0.1-1.7,0.1-2.8l0-2l-0.3-0.3c-0.3-0.3-0.4-0.7-0.2-0.8
		c0.1-0.1,2.2-0.1,2.4,0.1c0.2,0.2,0.1,0.6-0.2,0.8l-0.3,0.2l0,2.5c0,3.7-0.1,3.3,0.3,3.5c0.3,0.1,0.3,0.2,0.3,0.5
		c0,0.3-0.1,0.4-0.2,0.4C304.7,496.2,302.7,496.1,302.6,496L302.6,496z M287.4,495.7c-0.2-0.2-0.1-0.7,0.1-0.8
		c0.3-0.2,0.3-0.8,0.3-3.2c0-1.9,0-2.4-0.1-2.5c-0.1-0.1-0.4-0.1-0.8-0.1c-0.6,0-0.7,0.1-1,0.3c-0.2,0.2-0.3,0.3-0.5,0.2
		c-0.2-0.1-0.3-0.6-0.1-1.2c0.2-0.6,0.4-0.8,0.9-0.7c0.2,0,1.5,0.1,2.9,0.1c2,0,2.5,0,2.6,0.1c0.1,0.1,0.1,1.3,0,1.7
		c-0.1,0.3-0.5,0.3-0.6,0c-0.1-0.3-0.5-0.4-1.1-0.5c-0.8,0-0.8-0.1-0.7,2.9c0,2.5,0,2.6,0.2,2.8c0.1,0.1,0.3,0.1,0.4,0.2
		c0.2,0,0.3,0.4,0.1,0.7l-0.1,0.3l-1.2,0C287.6,495.9,287.5,495.9,287.4,495.7L287.4,495.7z M270.9,495.8c-0.5-0.1-1.2-0.4-1.5-0.7
		c-0.8-0.8-0.9-1.2-1-4.1l-0.1-2.3l-0.3-0.1c-0.3-0.1-0.3-0.3-0.3-0.6c0-0.3,0.2-0.3,1.4-0.3c1,0,1.2,0,1.2,0.2
		c0.1,0.2,0,0.4-0.3,0.7l-0.3,0.3l0,1.5c0,2.9,0.3,3.8,1.4,4.1c0.4,0.1,0.6,0.1,1,0c0.5-0.1,1-0.6,1.1-1c0-0.2,0.1-1.2,0.1-2.3
		c0.1-2.2,0-2.4-0.4-2.6c-0.3-0.1-0.3-0.6-0.1-0.8c0.2-0.2,2.1-0.1,2.3,0c0.2,0.1,0.1,0.4-0.2,0.8c-0.2,0.2-0.2,0.3-0.2,1.8
		c0,1.8-0.1,2.8-0.4,3.6c-0.3,0.8-1.2,1.6-2,1.7C272,495.8,271.2,495.8,270.9,495.8L270.9,495.8z M252.8,495.7c0,0-0.2-0.1-0.4-0.1
		c-0.4-0.1-1.5-0.6-1.8-0.9c-0.2-0.2-0.3-0.4-0.8-1c-0.4-0.5-0.6-1.5-0.5-2.4c0.1-1.1,0.5-1.9,1.3-2.8c0.8-0.8,1.4-1.1,2.7-1.2
		c1.9-0.1,3.5,0.8,4.1,2.4c0.2,0.4,0.2,0.8,0.2,1.5c0,1.5-0.3,2.3-1.3,3.2c-0.5,0.5-1.2,0.9-1.8,1
		C253.7,495.7,252.8,495.8,252.8,495.7L252.8,495.7z M254.4,494.3c0.5-0.1,1-0.6,1.2-1.1c0.2-0.4,0.2-0.6,0.2-1.5
		c0-0.9-0.1-1.1-0.3-1.6c-0.4-0.7-0.9-1.1-1.8-1.4c-0.8-0.3-2.1,0.2-2.5,0.9c-0.6,1-0.4,2.9,0.5,3.9
		C252.3,494.2,253.4,494.5,254.4,494.3L254.4,494.3z M234.4,495.5c-0.7,0-0.8-0.1-1-0.3c-0.1-0.2-0.1-0.3,0-0.6
		c0.1-0.2,0.2-0.4,0.3-0.5c0.2-0.2,0.2-0.5,0-0.5c-0.2,0-0.3-0.2-0.1-0.3c0.2,0,0.2-0.2,0.1-0.4c0,0,0-0.2,0-0.3
		c0-0.1,0.1-0.9,0-1.8c0-0.8,0-1.7,0-1.9c0-0.3-0.1-0.4-0.4-0.7c-0.3-0.3-0.4-0.4-0.2-0.6c0.2-0.4,0.4-0.5,1.7-0.5
		c1.6,0,2.1,0.1,2.6,0.6c0.5,0.5,0.7,0.9,0.5,1.6c-0.1,0.3-0.1,0.6-0.2,0.6c0,0-0.1,0.2-0.1,0.3c-0.1,0.2,0,0.3,0.4,0.7
		c0.5,0.5,0.8,1,0.8,1.6c0,0.8-0.2,1.2-0.9,1.9c-0.6,0.6-0.7,0.7-1.2,0.8C236.2,495.5,235.4,495.5,234.4,495.5L234.4,495.5z
		 M236.7,494.1c0.4-0.2,0.5-0.3,0.4-1c-0.1-0.5-0.1-0.7-0.4-0.9c-0.4-0.3-0.7-0.5-1-0.4c-0.2,0.1-0.2,2,0,2.1
		C236,494.2,236.4,494.2,236.7,494.1L236.7,494.1z M236.3,490.2c0.2-0.2,0.2-0.8,0-1.2c-0.2-0.4-0.6-0.5-0.7-0.3
		c-0.1,0.2-0.1,1.4,0,1.5C235.8,490.4,236.2,490.4,236.3,490.2z M255.1,483.8c0,0-4.3,0-9.6,0s-10.1,0-10.7-0.1
		c-1.2,0-1.2,0-1.2-0.3c0-0.2,0.2-0.5,0.4-0.5c0.1,0,0.6-0.2,1.9-0.9c0.6-0.3,1.7-1.3,1.6-1.5c0-0.1,0-0.1,0.1-0.1
		c0.2,0.1,0.8-0.7,0.9-1.2c0,0,0.1-0.1,0.1-0.2c0.4-0.5,0.7-2.3,0.7-3.6c0-0.9,0-0.9-0.2-0.8c-0.1,0.1-0.1,0,0-0.1
		c0.1-0.1,0.1-0.8,0.1-3.7c0-1.9-0.1-4.6,0-5.9s0-2.4,0-2.5c0-0.5-0.1-9.7-0.1-14.7c0-3.9,0-5.9,0.1-6.1c0.2-0.4,0.6-0.6,1.5-0.6
		c1.1,0,2,0,2.3,0c0.3,0,0.3,0,0.2,0c-0.1,0.1,0.4,0.1,1.4,0.1c0.9,0,1.7,0,1.8,0c0.2,0,2.1,0,2.9,0c0.1,0,1.8,0,3.7,0.1
		c2,0,5.2,0.1,7.1,0.1c1.9,0,4.4,0.1,5.6,0.1c1.1,0,3.4,0.1,5.1,0.1s3.7,0.1,4.6,0.1s4.6,0.1,8.2,0.2s6.7,0.2,6.7,0.2
		c0,0-0.7,0.1-1.6,0.1c-2.6,0.1-26,0.4-29.7,0.3c-1.8,0-3.4,0-3.5,0.1l-0.2,0.1l0,11.6c0,6.4,0.1,14.1,0.1,17.1
		c0.1,5.4,0.1,5.5,0.3,6.2c0.5,1.4,1,2.3,2.1,3.4c0.8,0.8,2,1.6,3,1.9c0.9,0.3,0.7,0.7-0.3,0.8C259.9,483.8,255.1,483.8,255.1,483.8
		L255.1,483.8z M239,475.5c0-0.2,0-0.3,0.1-0.3c0.1,0,0.1,0.5,0,0.5C239,475.7,239,475.6,239,475.5z M261.3,440
		c-0.9-0.3-1.4-0.6-2-1.3c-0.8-0.9-1.1-1.6-1.2-2.9c-0.1-1.5,0.4-2.8,1.3-3.8c0.7-0.7,1.3-1,2.2-1.2c1.3-0.3,2.5-0.1,3.3,0.4
		c0.9,0.6,1.4,1.4,1.4,2.3l0,0.6l-3,0c-2,0-3,0.1-3.1,0.1c-0.2,0.2-0.2,1.3,0.1,2c0.4,1.3,1.1,2.2,2.2,2.7c1.4,0.7,3.1,0.1,3.6-1.1
		c0.2-0.4,0.4-0.4,0.4-0.1c0.1,0.3-0.4,1-0.8,1.4C264.8,440.2,263,440.5,261.3,440L261.3,440z M264.6,433.5c0.1-0.1,0.1-0.3,0-0.7
		c-0.3-1.1-0.9-1.7-1.8-1.8c-0.7,0-1.2,0.2-1.7,0.7c-0.5,0.6-0.9,1.5-0.7,1.8C260.7,433.7,264.5,433.6,264.6,433.5z M286.5,440.1
		c-0.7-0.2-1.3-0.6-1.9-1.1c-1.1-1-1.5-2-1.5-3.5c0-0.9,0-1.1,0.3-1.7c0.4-0.8,1.5-2,2.3-2.4c1.4-0.8,3.4-0.8,4.9,0
		c0.3,0.1,0.8,0.6,1.2,1c1.2,1.2,1.6,2.3,1.4,3.8c-0.1,1-0.5,1.8-1.3,2.5c-1.2,1.2-2.1,1.6-3.8,1.5
		C287.5,440.2,286.8,440.1,286.5,440.1L286.5,440.1z M289.3,439.5c1.1-0.7,1.7-2,1.7-3.8c0.1-1.1-0.1-2.1-0.6-3
		c-1.2-2.3-3.6-2.3-4.8,0c-0.4,0.8-0.5,1.4-0.5,2.6c0,1.7,0.4,2.8,1.3,3.7C287.4,440.1,288.2,440.3,289.3,439.5L289.3,439.5z
		 M240.2,439.9c-1.2-0.1-1.6-0.4-0.7-0.6c0.2-0.1,0.4-0.2,0.4-0.2s0.1-0.1,0.1-0.1c0.2,0,0.8-0.6,0.9-0.9c0.1-0.4,0.1-10.9,0-11.5
		c-0.1-0.6-1.1-1.3-1.8-1.3c-0.4,0-0.2-0.3,0.2-0.4c0.4-0.1,5-0.1,5.9,0c0.5,0.1,0.7,0.1,0.7,0.2c0,0.1-0.1,0.2-0.4,0.2
		c-0.8,0.1-1.2,0.5-1.5,1.2c-0.1,0.3-0.1,0.8-0.1,2.7l0,2.3l0.4,0.1c0.2,0,1.8,0.1,3.5,0.1c2.9,0,3.1,0,3.2-0.2
		c0.1-0.3,0.1-3.6,0-4.4c-0.1-0.7-0.2-0.8-0.5-1.2c-0.3-0.3-0.5-0.5-0.8-0.5c-0.2,0-0.4-0.1-0.5-0.1c-0.8-0.4,2-0.6,5.6-0.3
		c1,0.1,1.2,0.1,1.2,0.2c0,0.1-0.1,0.2-0.4,0.2c-0.6,0.1-1.1,0.4-1.4,1c-0.2,0.4-0.2,0.4-0.2,5.5c0,5.3,0,6,0.4,6.7
		c0.2,0.4,1,0.9,1.3,0.9c0.3,0,0.5,0.2,0.4,0.3c-0.2,0.2-6.7,0.1-6.8,0c-0.1-0.2,0-0.2,0.3-0.3c0.5-0.1,1.3-0.7,1.5-1.1
		c0.2-0.3,0.2-0.6,0.2-3c0-1.7,0-2.6-0.1-2.7c-0.1-0.1-6.9-0.2-7.1-0.1c-0.1,0-0.1,1-0.1,2.5c0,2.8,0.1,3,0.7,3.8
		c0.3,0.3,0.5,0.5,0.9,0.6c0.3,0.1,0.5,0.2,0.5,0.2c0,0.1-0.3,0.1-0.6,0.2C244.8,440,241.3,440,240.2,439.9L240.2,439.9z
		 M269.1,439.9c-0.1-0.1,0-0.3,0.2-0.3c0.3,0,0.8-0.4,1-0.7c0.2-0.4,0.2-0.4,0.2-6.3c0-5.5,0-6-0.2-6.3c-0.2-0.4-0.5-0.7-0.9-0.7
		c-0.3-0.1-0.4-0.3-0.1-0.4c0.5-0.1,1.4-0.2,2.1-0.3c0.6-0.1,0.7,0,0.8,0.1c0,0.1,0.1,3.2,0.1,6.9c0,6.6,0,6.8,0.2,7.1
		c0.1,0.2,0.4,0.4,0.7,0.6c0.3,0.1,0.5,0.3,0.5,0.3C273.6,440,269.2,440.1,269.1,439.9z M275.5,440c-0.1-0.1-0.1-0.2,0.1-0.2
		c0.3,0,0.9-0.4,1.1-0.7c0.1-0.2,0.2-0.5,0.2-0.9c0.1-0.8,0.1-11.1,0-11.6c-0.1-0.5-0.6-1-1-1.1c-0.2,0-0.3-0.1-0.3-0.2
		c0-0.1,2.1-0.5,2.7-0.4l0.4,0l0,6.6c0,3.6,0,6.8,0.1,7c0.1,0.5,0.4,1,0.9,1.1c0.2,0.1,0.4,0.2,0.4,0.2c0,0.1-0.3,0.1-2.3,0.1
		C276.6,440,275.6,440,275.5,440L275.5,440z M245,423.3c-4.4,0-5.7-0.1-5.8-0.2c-0.1-0.1-0.1-1.2-0.1-4.9c0-7.9-0.2-24.5-0.2-26
		c-0.1-6-0.2-6.2-1-7.9c-1-2.1-2.6-3.5-5.1-4.3c-0.3-0.1-0.6-0.3-0.6-0.3c-0.1-0.3,0.5-0.3,4-0.3c1.9,0,3.5,0.1,3.6,0.1
		c0,0,4.2,0,9.3,0.1c9.9,0,12.3,0.1,12.3,0.3c0,0.1-0.1,0.2-0.4,0.2c-0.2,0.1-0.9,0.3-1.4,0.6c-1.8,0.9-3.2,2.5-3.9,4.2
		c-0.6,1.6-0.6,0.8-0.5,15.1c0,7.2,0.1,15.1,0.1,17.5c0,3.7,0,4.4,0.1,4.5c0.1,0.1,0.5,0.2,1.1,0.2c0.5,0,1.5,0.1,2.2,0.2
		c0.7,0.1,1.6,0.1,1.9,0.1c0.7,0,1.4,0.1,1.4,0.3c0,0.1-0.1,0.1-0.3,0.1c-0.4,0-3.4,0.2-4.2,0.2C256.4,423.3,250.7,423.3,245,423.3z
		"/>
</g>
<g>
	<path class="st1" d="M338,484.6c-3,0-12.9-0.2-14.5-0.3c-0.5,0-2.7-0.1-4.8-0.1c-2.1,0-5.3-0.1-7.2-0.1s-6.5-0.1-10.4-0.1
		c-3.9,0-7.9-0.1-8.9-0.1c-7.3-0.2-10.8-0.3-11.2-0.4c-0.4-0.1,1.1-0.2,6.9-0.3c8.4-0.1,10.5-0.1,12.2-0.4c1.1-0.1,3.1-0.6,3.5-0.9
		c0.1-0.1,0.2-0.1,0.3-0.1c0.1,0,0.5-0.2,0.9-0.5c1.1-0.7,1.9-1.5,2.4-2.5c0.7-1.3,0.7-1.5,0.7-9c0-3.6,0.1-7.3,0.1-8.2
		c0-0.9,0.1-4.5,0.1-8c0-3.5,0.1-7.3,0.1-8.5c0-1.8,0-2.2-0.1-2.2c-0.1,0-0.6-0.1-1.2-0.2c-4.5-0.3-5-0.3-4.8-0.5
		c0.1-0.1,1.2-0.2,2.5-0.2c1.9-0.1,4.2-0.1,10.9-0.1c4.7,0,9.7,0.1,11.3,0.2c1.6,0.1,3.7,0.1,4.7,0.1s2.5,0.1,3.2,0.1
		c0.7,0,2.1,0.1,3,0.1c1.8,0,5.8,0.2,10.7,0.4c1.6,0.1,3,0.1,3,0.2c0,0.2-2.5,0.2-14.6,0.2l-12.8,0l-0.1,2.2c0,1.2-0.1,5.6-0.2,9.7
		c-0.1,4.2-0.1,9-0.2,10.8s-0.1,5.2-0.1,7.6c0,4.1,0,4.5,0.2,5c0.6,2.1,2.3,3.5,5.1,4.4c1.9,0.6,3.5,0.8,7.4,0.9
		c2.4,0.1,5.1,0.2,8.8,0.4c2,0.1,2.7,0.2,2.8,0.3c0.1,0.1-1.7,0.2-4.5,0.2C342.1,484.6,339.6,484.6,338,484.6L338,484.6z"/>
	<path class="st1" d="M355.1,440.7c-0.1-0.1-0.2-0.6-0.4-1c-1.7-5.5-1.7-5.7-1.8-5.5c0,0-0.2,0.5-0.4,1c-0.5,1.2-0.6,1.5-0.8,1.8
		c-0.1,0.1-0.4,1-0.8,1.9c-0.4,0.9-0.7,1.7-0.8,1.8c-0.2,0.3-0.6,0.3-0.7,0c0-0.1-0.4-1.2-0.8-2.6c-1.8-5.9-1.8-5.9-2.4-6.1
		c-0.6-0.3-0.3-0.3,1.4-0.4c0.9,0,1.8,0,2.1,0c0.5,0.1,0.5,0.2,0.1,0.4c-0.4,0.1-0.6,0.4-0.7,0.7c-0.1,0.4,0.1,1.1,0.8,3.2
		c0.2,0.7,0.5,1.5,0.5,1.7c0.1,0.3,0.2,0.5,0.2,0.5c0.1,0,0.3-0.5,1.2-2.8c0.9-2.2,1-2.7,0.6-3.1c-0.1-0.1-0.3-0.3-0.5-0.3
		c-0.2-0.1-0.3-0.1-0.2-0.2c0.1-0.1,2.2-0.2,3.3-0.1c0.9,0.1,1.1,0.2,0.6,0.4c-0.9,0.4-0.8,0.9,0.5,5.4c0.1,0.4,0.2,0.7,0.3,0.7
		c0,0,0.1-0.2,0.2-0.4c0.1-0.2,0.4-1,0.8-1.8c0.3-0.8,0.7-1.6,0.8-1.8c0.2-0.5,0.3-1.3,0.1-1.6c-0.1-0.1-0.3-0.4-0.5-0.5
		c-0.2-0.1-0.3-0.2-0.3-0.3c0.1-0.1,1.3-0.1,2.4-0.1c0.6,0,0.8,0.1,0.8,0.2c0,0.1-0.1,0.2-0.2,0.2c-0.6,0.1-1.4,1.4-2.2,3.3
		c-0.3,0.7-0.7,1.6-0.9,2.1s-0.5,1.1-0.5,1.2c-0.1,0.2-0.3,0.7-0.5,1.2c-0.4,0.8-0.5,0.9-0.7,0.9
		C355.3,440.9,355.2,440.8,355.1,440.7L355.1,440.7z"/>
	<path class="st1" d="M343.8,434.2c-0.5-1-1.5-2-2.4-2.5c-1.5-0.7-3.4-0.7-4.9,0.1c-0.9,0.5-1.9,1.5-2.3,2.4
		c-0.4,0.9-0.5,2.1-0.2,3.1c0.2,0.7,0.8,1.7,1.3,2.1c0.5,0.5,1.4,0.9,2,1.1c0.8,0.2,2.4,0.2,3.2,0c0.8-0.2,1.6-0.6,2.2-1.3
		c1.1-1.1,1.4-1.9,1.4-3.4C344.1,435,344.1,435,343.8,434.2z M339.9,440.3c-1.2,0.6-2.4,0.1-3.3-1.4c-0.8-1.3-0.9-3.9-0.2-5.3
		c1.2-2.4,3.4-2.7,4.7-0.6C342.6,435.3,342,439.2,339.9,440.3z"/>
	<path class="st1" d="M319.1,438.4c-0.5,0.9-1.4,1.3-2.6,1.3c-0.4,0-0.9-0.1-1.2-0.3c-0.9-0.4-1.8-1.6-2.1-2.8
		c-0.1-0.6-0.1-2.2,0-2.2c0.1,0,1.5,0,3.1,0c3.4,0,3.2,0.1,3-0.8c-0.3-1.9-2.4-3.1-4.5-2.6c-1,0.2-1.2,0.3-1.8,0.7
		c-1.4,0.9-2,2.3-2.1,4.1c0,2.4,1.4,4.2,3.7,4.6c0.8,0.1,2.2,0.1,2.8-0.2c0.9-0.3,1.8-1.3,1.8-1.9C319.5,438,319.3,438,319.1,438.4z
		 M313.9,432.3c0.5-0.7,1-1,1.6-1c1.2-0.1,2.2,1,2.2,2.3v0.4h-2.1c-1.3,0-2.2,0-2.2-0.1C313.2,433.7,313.5,432.7,313.9,432.3z"/>
	<path class="st1" d="M327.3,440.4c-0.4,0-0.4-0.2,0-0.3c0.7-0.3,1-0.6,1.1-1.4c0.1-0.6,0.2-6.1,0.2-9.6c0-1.9,0-2.1-0.2-2.5
		c-0.2-0.4-0.3-0.5-0.7-0.6c-0.7-0.3-0.6-0.3,0.5-0.5c1.2-0.2,2.1-0.2,2.2-0.1c0,0.1,0,2.2,0,4.8c-0.1,2.6-0.1,5.6-0.1,6.8
		c0,2.6,0,2.7,0.9,3.1c0.3,0.1,0.5,0.3,0.5,0.4C331.5,440.5,328.2,440.5,327.3,440.4L327.3,440.4z"/>
	<path class="st1" d="M321.6,440.3c-0.4-0.1-0.3-0.2,0.2-0.4c0.5-0.2,0.7-0.6,0.8-1.5c0-0.3,0.1-3,0.1-6c0.1-4.6,0-5.4-0.1-5.7
		c-0.2-0.4-0.5-0.7-0.9-0.8c-0.4-0.1-0.4-0.2-0.2-0.3c0.4-0.2,2.7-0.4,2.9-0.3c0.1,0.1,0.1,0.5,0.1,2.5c0,1.3-0.1,4.4-0.1,6.9
		l-0.1,4.5l0.3,0.4c0.2,0.2,0.5,0.4,0.7,0.5c0.2,0.1,0.4,0.2,0.4,0.2c0,0.1-0.4,0.1-2,0.1C322.8,440.4,321.7,440.4,321.6,440.3z"/>
	<path class="st1" d="M302.7,440.1c-1.5-0.1-2-0.2-1.1-0.3c0.7-0.1,1.2-0.5,1.5-1c0.2-0.5,0.2-0.5,0.2-2.7v-2.2l-0.4-0.8
		c-0.4-0.8-3.2-5.2-4-6.1c-0.5-0.6-0.9-0.9-1.5-1c-0.5-0.1-0.6-0.2-0.5-0.3c0.2-0.2,6.6-0.1,6.8,0.1c0.1,0.1,0,0.1-0.7,0.3
		c-0.2,0-0.4,0.2-0.6,0.4c-0.4,0.5-0.3,0.9,0.6,2.3c1.7,2.7,2.5,3.9,2.6,4c0.1,0,2.6-3.7,2.9-4.4c0.3-0.6,0.3-1.1,0.1-1.5
		c-0.2-0.4-0.4-0.5-0.9-0.7c-0.3-0.1-0.4-0.2-0.4-0.2c0.1-0.1,4.4-0.1,4.7,0c0.3,0.1,0.2,0.2-0.4,0.4c-0.7,0.3-1.5,1.1-2.8,2.9
		c-2.2,3.3-2.6,3.9-2.7,4.1c-0.1,0.4-0.2,4.5-0.1,5.2c0.2,0.9,0.8,1.5,1.7,1.7c0.2,0,0.4,0.1,0.4,0.1
		C307.9,440.2,306.4,440.3,302.7,440.1L302.7,440.1z"/>
	<path class="st1" d="M306.4,423.7c-4.9,0-10.7-0.1-12.9-0.2c-2.2-0.1-5.8-0.1-7.9-0.2s-4.9-0.1-6-0.1c-1.2,0-3.6-0.1-5.3-0.1
		c-2.8-0.1-3.4-0.1-3.2-0.2c0,0,3.4-0.1,7.4-0.1c4.1,0,9.1-0.1,11.2-0.1s6.8,0,10.5,0c6.6,0,6.8,0,6.8-0.2c0-0.3-1.2-2.7-1.8-3.6
		c-0.6-0.9-1.4-1.8-2.8-3.4c-0.5-0.6-1.6-1.8-2.3-2.6c-0.7-0.8-2.2-2.6-3.4-3.9c-1.1-1.3-2.2-2.6-2.5-2.8c-0.2-0.3-1-1.1-1.7-2
		c-0.7-0.8-1.4-1.6-1.6-1.8c-0.2-0.2-0.6-0.7-1-1.1s-1-1.2-1.4-1.6c-0.4-0.5-1.3-1.6-2.1-2.5c-0.8-0.9-1.9-2.1-2.4-2.7
		c-0.5-0.6-1.4-1.6-2-2.2c-0.9-1-2.2-2.5-4.5-5.2c-1.7-2-2.4-2.8-3.1-3.6c-2.6-3-2.8-3.2-2.7-3.4c0.1-0.1,3.1-0.1,13.9,0
		c3.3,0,8.6,0.1,11.8,0c5.3,0,6.2,0,6,0.2c0,0-0.4,0.2-0.9,0.3c-1,0.3-2.4,1-3.2,1.5c-0.7,0.5-1.7,1.5-2,2.1
		c-0.3,0.7-0.4,1.8-0.1,2.6c0.3,0.7,0.6,1.2,3.6,4.7c0.7,0.8,1.6,2,2.1,2.5c0.5,0.6,1.5,1.8,2.3,2.8c0.8,1,2.1,2.5,2.7,3.3
		c0.7,0.8,1.4,1.7,1.6,1.9s0.8,0.9,1.3,1.6c0.5,0.7,1.4,1.7,1.9,2.3c0.5,0.6,1.5,1.7,2.1,2.6c0.7,0.8,1.6,1.9,2,2.5
		c1.3,1.6,3.5,5,4.6,7.2c0.8,1.7,1.4,3.6,1.4,4.5v0.4l1.2-0.1c0.7,0,1.7,0,2.4,0c0.6,0.1,1.6,0.1,2,0.2c1.1,0.1,1.4,0.1,1.3,0.2
		C329.6,423.7,321.2,423.8,306.4,423.7L306.4,423.7z"/>
	<path class="st1" d="M345,393.8c0-0.1-0.1-0.5-0.2-0.9c-1.1-4.3-4.8-9.7-8.3-11.8c-0.4-0.3-0.8-0.5-0.9-0.5s-0.2-0.1-0.4-0.2
		c-0.2-0.2-0.2-0.2-0.1-0.3c0.2-0.1,24.2-0.1,25,0c0.6,0.1,0.7,0.2,0.1,0.4c-2.8,1.1-5.5,2.8-8.7,5.6c-2.9,2.5-4.9,4.8-5.9,7
		C345.3,393.9,345.1,394.1,345,393.8z"/>
</g>
</svg>
